<svg width="100mm" height="100.00211mm" viewBox="0 0 100 100.00211" version="1.1" id="svg5" sodipodi:docname="favicon.svg" inkscape:version="1.1 (c68e22c387, 2021-05-23)" xmlns:inkscape="http://www.inkscape.org/namespaces/inkscape" xmlns:sodipodi="http://sodipodi.sourceforge.net/DTD/sodipodi-0.dtd" xmlns:xlink="http://www.w3.org/1999/xlink" xmlns="http://www.w3.org/2000/svg" xmlns:svg="http://www.w3.org/2000/svg">
  <sodipodi:namedview id="namedview7" pagecolor="#505050" bordercolor="#ffffff" borderopacity="1" inkscape:pageshadow="0" inkscape:pageopacity="0" inkscape:pagecheckerboard="1" inkscape:document-units="mm" showgrid="false" inkscape:zoom="1.28" inkscape:cx="94.921875" inkscape:cy="182.42188" inkscape:window-width="1920" inkscape:window-height="991" inkscape:window-x="-9" inkscape:window-y="-9" inkscape:window-maximized="1" inkscape:current-layer="layer1"/>
  <defs id="defs2">
    <pattern inkscape:collect="always" xlink:href="#pattern946" id="pattern2032" patternTransform="matrix(0.27394397,0,0,0.27394397,31.677948,72.865866)"/>
    <pattern patternUnits="userSpaceOnUse" width="364.13434" height="364.14201" patternTransform="translate(6.9394886,6.6113312)" id="pattern946">
      <g id="g1169" clip-path="none" transform="matrix(3.6413432,0,0,3.6413432,-114.89816,-265.10333)">
        <path id="rect846" style="fill:#5bcefa;stroke-width:0.397616;paint-order:stroke markers fill;stop-color:#000000" d="m 31.603785,72.803719 h 99.900005 c 0.0277,0 0.05,0.0223 0.05,0.05 V 92.75372 c 0,0.0277 -0.0223,0.05 -0.05,0.05 H 31.603785 c -0.0277,0 -0.05,-0.0223 -0.05,-0.05 V 72.853718 c 0,-0.0277 0.0223,-0.05 0.05,-0.05 z"/>
        <path id="rect1030" style="fill:#f5a9b8;stroke-width:0.397616;paint-order:stroke markers fill;stop-color:#000000" d="m 31.603785,92.804253 h 99.900005 c 0.0277,0 0.05,0.0223 0.05,0.05 v 19.899997 c 0,0.0277 -0.0223,0.05 -0.05,0.05 H 31.603785 c -0.0277,0 -0.05,-0.0223 -0.05,-0.05 V 92.854253 c 0,-0.0277 0.0223,-0.05 0.05,-0.05 z"/>
        <path id="rect1032" style="fill:#f5a9b8;stroke-width:0.397616;paint-order:stroke markers fill;stop-color:#000000" d="m 31.603785,132.80531 h 99.900005 c 0.0277,0 0.05,0.0223 0.05,0.05 v 19.9 c 0,0.0277 -0.0223,0.05 -0.05,0.05 H 31.603785 c -0.0277,0 -0.05,-0.0223 -0.05,-0.05 v -19.9 c 0,-0.0277 0.0223,-0.05 0.05,-0.05 z"/>
        <path id="rect1034" style="fill:#ffffff;stroke-width:0.397616;paint-order:stroke markers fill;stop-color:#000000" d="m 31.603785,112.80478 h 99.900005 c 0.0277,0 0.05,0.0223 0.05,0.05 v 19.9 c 0,0.0277 -0.0223,0.05 -0.05,0.05 H 31.603785 c -0.0277,0 -0.05,-0.0223 -0.05,-0.05 v -19.9 c 0,-0.0277 0.0223,-0.05 0.05,-0.05 z"/>
        <path id="rect1036" style="fill:#5bcefa;stroke-width:0.397616;paint-order:stroke markers fill;stop-color:#000000" d="m 31.603785,152.80583 h 99.900005 c 0.0277,0 0.05,0.0223 0.05,0.05 v 19.9 c 0,0.0277 -0.0223,0.05 -0.05,0.05 H 31.603785 c -0.0277,0 -0.05,-0.0223 -0.05,-0.05 v -19.9 c 0,-0.0277 0.0223,-0.05 0.05,-0.05 z"/>
      </g>
    </pattern>
  </defs>
  <g inkscape:label="Layer 1" inkscape:groupmode="layer" id="layer1" transform="translate(-31.553785,-72.803719)">
    <path id="rect954" style="fill:url(#pattern2032);stroke:#000000;stroke-width:2.07076;stroke-miterlimit:4;stroke-dasharray:none" d="m 56.642688,74.880317 c -1.67941,0 -4.814351,0.111909 -4.814351,2.687005 0,0.783725 1.007628,5.485835 7.94919,5.485835 2.687056,0 5.485786,-0.447834 8.172842,-0.447834 10.076462,0 20.041322,-0.111825 30.117784,-0.111825 -7.165484,4.81431 -46.463872,29.557542 -53.181513,32.244602 -2.127254,0.78372 -3.358489,1.34332 -3.358489,3.24666 0,2.35117 2.686699,3.80673 4.701991,3.91868 1.56745,0 2.687251,-0.55964 3.806858,-1.45532 1.231568,-0.89569 1.231572,-0.89584 20.712734,-13.09956 6.269797,-2.57509 11.307687,-4.47834 17.913366,-4.47834 10.636267,0 20.60091,6.82949 20.60091,12.87537 0,5.93391 -6.04565,10.63669 -11.64369,12.8759 -0.671765,-7.50136 -11.532134,-13.88339 -18.361738,-13.88339 -8.061169,0 -19.70524,9.18083 -19.70524,17.57789 0,6.38175 5.933967,9.40491 11.42004,9.96471 -7.501367,4.70235 -14.4425,8.62099 -22.391709,13.21138 l -8.509385,4.92617 c -5.150192,3.02295 -5.821844,3.47069 -5.821844,5.37401 0,2.0153 2.462922,2.91119 4.142332,2.91119 1.903332,0 3.583047,-0.78422 5.038536,-1.79187 3.134899,-2.01529 6.269619,-4.25439 9.404518,-6.26968 5.150191,-3.24685 9.85253,-6.0457 14.55488,-8.95668 0.783723,-0.33588 1.455445,-0.55966 2.239171,-0.55966 2.015294,0 3.47078,0.8953 7.05352,6.04549 l 3.582675,5.15036 c 1.119607,1.56745 3.134933,2.79883 5.262185,2.79883 2.351176,0 4.366754,-1.45516 5.934204,-2.91065 11.643915,-11.30802 13.882945,-13.43556 16.010205,-13.43556 2.57509,0 11.30822,7.72524 11.30822,9.29269 0,1.00764 -1.00772,2.12725 -10.07654,7.05352 -0.5598,0.33589 -0.67202,1.00802 -0.67202,1.45587 0,1.90332 3.80669,3.02301 5.26219,3.02301 0.55979,0 2.12726,-0.11236 13.21137,-6.71805 1.90333,-1.1196 2.79937,-2.57501 2.79937,-4.0305 0,-1.34353 -0.78382,-2.91104 -2.12735,-4.36652 -12.87548,-13.54725 -17.68969,-13.77104 -19.03322,-13.77104 -3.80666,0 -7.50152,3.02292 -13.09955,8.39703 -2.239215,2.12725 -4.142307,4.25481 -5.485835,5.48637 -1.119609,1.00765 -2.351242,2.01498 -3.470851,2.01498 -1.791369,0 -2.239347,-0.67189 -6.941696,-7.38953 -0.895685,-1.23156 -2.015359,-2.12693 -3.470848,-2.46282 l 2.127344,-1.23167 c 3.246861,-1.90334 6.269619,-3.91866 9.404519,-5.71002 l 3.582675,-1.23168 4.030507,-1.23168 c 10.076455,-3.35882 22.728255,-10.18843 22.728255,-20.71273 0,-10.07647 -12.31569,-19.256865 -26.870589,-19.704708 H 87.655608 C 94.373249,92.794007 101.09091,88.651038 107.47267,84.06065 l 1.3435,-0.783308 c 3.02294,-1.791371 3.47085,-2.687123 3.47085,-3.470849 0,-1.903332 -3.47081,-4.702527 -5.26218,-4.702527 -0.67177,0 -1.34323,0.224049 -2.01499,0.33601 -2.12726,0.447842 -4.36647,0.671483 -6.605688,0.671483 H 67.726718 c -5.486073,0 -7.277365,-1.231142 -11.08403,-1.231142 z m 22.168061,46.239813 c 4.254506,0 10.748556,4.47803 10.748556,6.94117 0,1.90332 -5.150453,8.17337 -14.331231,8.17337 -3.022939,0 -8.173376,-1.00769 -8.173376,-4.81435 0,-4.14255 6.493897,-10.30019 11.756051,-10.30019 z"/>
  </g>
<script xmlns=""/></svg>
