<?xml version="1.0" encoding="UTF-8" standalone="no"?>
<!-- Created with Inkscape (http://www.inkscape.org/) -->

<svg
   width="100mm"
   height="100.00211mm"
   viewBox="0 0 100 100.00211"
   version="1.1"
   id="svg5"
   sodipodi:docname="favicon.svg"
   inkscape:version="1.1 (c68e22c387, 2021-05-23)"
   xmlns:inkscape="http://www.inkscape.org/namespaces/inkscape"
   xmlns:sodipodi="http://sodipodi.sourceforge.net/DTD/sodipodi-0.dtd"
   xmlns="http://www.w3.org/2000/svg"
   xmlns:svg="http://www.w3.org/2000/svg">
  <sodipodi:namedview
     id="namedview7"
     pagecolor="#505050"
     bordercolor="#ffffff"
     borderopacity="1"
     inkscape:pageshadow="0"
     inkscape:pageopacity="0"
     inkscape:pagecheckerboard="1"
     inkscape:document-units="mm"
     showgrid="false"
     inkscape:zoom="0.90509668"
     inkscape:cx="-9.391262"
     inkscape:cy="102.19903"
     inkscape:window-width="1920"
     inkscape:window-height="991"
     inkscape:window-x="-9"
     inkscape:window-y="-9"
     inkscape:window-maximized="1"
     inkscape:current-layer="layer1" />
  <defs
     id="defs2">
    <clipPath
       clipPathUnits="userSpaceOnUse"
       id="clipPath28205">
      <text
         xml:space="preserve"
         style="font-size:112.239px;line-height:1.05;font-family:FinkHeavy;-inkscape-font-specification:FinkHeavy;stroke-width:6.47531"
         x="26.051512"
         y="163.49147"
         id="text28209"><tspan
           sodipodi:role="line"
           id="tspan28207"
           style="font-style:normal;font-variant:normal;font-weight:normal;font-stretch:normal;font-family:'FOT-NewCinemaA Std';-inkscape-font-specification:'FOT-NewCinemaA Std';stroke-width:6.47531"
           x="26.051512"
           y="163.49147">ゑ</tspan></text>
    </clipPath>
  </defs>
  <g
     inkscape:label="Layer 1"
     inkscape:groupmode="layer"
     id="layer1"
     transform="translate(-31.553785,-72.803719)">
    <path
       d="m 80.318155,160.952 c 1.08135,1.51389 3.02778,2.70338 5.082345,2.70338 2.270835,0 4.217265,-1.40576 5.731155,-2.81151 11.246045,-10.92164 13.408745,-12.9762 15.463305,-12.9762 2.48711,0 10.92164,7.46131 10.92164,8.9752 0,0.97322 -0.97322,2.05457 -9.73215,6.81251 -0.54068,0.3244 -0.64881,0.97321 -0.64881,1.40575 0,1.8383 3.67659,2.91965 5.08234,2.91965 0.54068,0 2.05457,-0.10814 12.75993,-6.4881 1.8383,-1.08135 2.70338,-2.48711 2.70338,-3.89286 0,-1.29762 -0.75695,-2.81151 -2.05457,-4.21727 -12.43552,-13.08433 -17.08533,-13.3006 -18.38295,-13.3006 -3.67659,0 -7.245044,2.91964 -12.651794,8.11012 -2.162701,2.05457 -4.000996,4.10913 -5.298616,5.29862 -1.08135,0.97321 -2.270835,1.94643 -3.352185,1.94643 -1.73016,0 -2.1627,-0.64881 -6.70437,-7.13691 -0.86508,-1.18949 -1.94643,-2.05457 -3.352185,-2.37897 l 2.054565,-1.18949 c 3.135915,-1.83829 6.05556,-3.78472 9.08334,-5.51488 l 3.46032,-1.18949 3.892861,-1.18948 c 9.732154,-3.24405 21.951404,-9.84029 21.951404,-20.00498 0,-9.73215 -11.89485,-18.59922 -25.9524,-19.03176 h -2.919645 c 6.488101,-4.000995 12.976205,-8.00199 19.139895,-12.435525 l 1.29762,-0.756945 c 2.91965,-1.73016 3.35219,-2.59524 3.35219,-3.352185 0,-1.838295 -3.35219,-4.54167 -5.08235,-4.54167 -0.64881,0 -1.29762,0.21627 -1.94643,0.324405 -2.05456,0.43254 -4.217264,0.64881 -6.379964,0.64881 H 68.207035 c -5.298615,0 -7.028775,-1.189485 -10.705365,-1.189485 -1.622025,0 -4.649805,0.108135 -4.649805,2.59524 0,0.756945 0.973215,5.298615 7.677585,5.298615 2.59524,0 5.298615,-0.43254 7.893855,-0.43254 9.73215,0 19.356165,-0.108135 29.088316,-0.108135 -6.920641,4.649805 -44.876026,28.547645 -51.364126,31.142885 -2.054565,0.75694 -3.244051,1.29762 -3.244051,3.13591 0,2.27084 2.595241,3.67659 4.541671,3.78473 1.51389,0 2.59524,-0.54068 3.67659,-1.40576 1.189485,-0.86508 1.189485,-0.86508 20.004975,-12.65179 6.05556,-2.48711 10.921635,-4.3254 17.3016,-4.3254 10.272826,0 19.89684,6.59623 19.89684,12.43552 0,5.73116 -5.83929,10.27283 -11.246039,12.43553 -0.64881,-7.24505 -11.137906,-13.40874 -17.734141,-13.40874 -7.78572,0 -19.03176,8.86707 -19.03176,16.97719 0,6.1637 5.731155,9.08334 11.02977,9.62402 -7.245045,4.54167 -13.949415,8.32639 -21.627,12.75993 l -8.218261,4.75794 c -4.97421,2.91964 -5.62302,3.35218 -5.62302,5.19048 0,1.94643 2.37897,2.81151 4.000995,2.81151 1.838295,0 3.460321,-0.75695 4.866076,-1.73016 3.02778,-1.94643 6.05556,-4.10913 9.08334,-6.05556 4.97421,-3.13592 9.51588,-5.83929 14.05755,-8.6508 0.756945,-0.32441 1.405755,-0.54068 2.1627,-0.54068 1.94643,0 3.352185,0.86508 6.812505,5.83929 z m 8.975205,-33.08931 c 0,1.8383 -4.97421,7.89386 -13.84128,7.89386 -2.919645,0 -7.893855,-0.97322 -7.893855,-4.64981 0,-4.00099 6.27183,-9.94842 11.354175,-9.94842 4.10913,0 10.38096,4.3254 10.38096,6.70437 z"
       style="font-size:108.135px;line-height:1.05;font-family:'FOT-NewCinemaA Std';-inkscape-font-specification:'FOT-NewCinemaA Std';stroke:#000000;stroke-width:6.23857"
       id="path29935" />
    <g
       id="g1169"
       clip-path="url(#clipPath28205)"
       transform="matrix(0.96343872,0,0,0.96343872,2.9897198,4.4110452)">
      <path
         id="rect846"
         style="fill:#5bcefa;stroke-width:0.397616;paint-order:stroke markers fill;stop-color:#000000"
         d="m 31.603785,72.803719 h 99.900005 c 0.0277,0 0.05,0.0223 0.05,0.05 V 92.75372 c 0,0.0277 -0.0223,0.05 -0.05,0.05 H 31.603785 c -0.0277,0 -0.05,-0.0223 -0.05,-0.05 V 72.853718 c 0,-0.0277 0.0223,-0.05 0.05,-0.05 z" />
      <path
         id="rect1030"
         style="fill:#f5a9b8;stroke-width:0.397616;paint-order:stroke markers fill;stop-color:#000000"
         d="m 31.603785,92.804253 h 99.900005 c 0.0277,0 0.05,0.0223 0.05,0.05 v 19.899997 c 0,0.0277 -0.0223,0.05 -0.05,0.05 H 31.603785 c -0.0277,0 -0.05,-0.0223 -0.05,-0.05 V 92.854253 c 0,-0.0277 0.0223,-0.05 0.05,-0.05 z" />
      <path
         id="rect1032"
         style="fill:#f5a9b8;stroke-width:0.397616;paint-order:stroke markers fill;stop-color:#000000"
         d="m 31.603785,132.80531 h 99.900005 c 0.0277,0 0.05,0.0223 0.05,0.05 v 19.9 c 0,0.0277 -0.0223,0.05 -0.05,0.05 H 31.603785 c -0.0277,0 -0.05,-0.0223 -0.05,-0.05 v -19.9 c 0,-0.0277 0.0223,-0.05 0.05,-0.05 z" />
      <path
         id="rect1034"
         style="fill:#ffffff;stroke-width:0.397616;paint-order:stroke markers fill;stop-color:#000000"
         d="m 31.603785,112.80478 h 99.900005 c 0.0277,0 0.05,0.0223 0.05,0.05 v 19.9 c 0,0.0277 -0.0223,0.05 -0.05,0.05 H 31.603785 c -0.0277,0 -0.05,-0.0223 -0.05,-0.05 v -19.9 c 0,-0.0277 0.0223,-0.05 0.05,-0.05 z" />
      <path
         id="rect1036"
         style="fill:#5bcefa;stroke-width:0.397616;paint-order:stroke markers fill;stop-color:#000000"
         d="m 31.603785,152.80583 h 99.900005 c 0.0277,0 0.05,0.0223 0.05,0.05 v 19.9 c 0,0.0277 -0.0223,0.05 -0.05,0.05 H 31.603785 c -0.0277,0 -0.05,-0.0223 -0.05,-0.05 v -19.9 c 0,-0.0277 0.0223,-0.05 0.05,-0.05 z" />
    </g>
  </g>
</svg>
