<?xml version="1.0" encoding="UTF-8" standalone="no"?>
<!-- Created with Inkscape (http://www.inkscape.org/) -->

<svg
   width="100mm"
   height="100.00211mm"
   viewBox="0 0 100 100.00211"
   version="1.1"
   id="svg5"
   sodipodi:docname="favicon.svg"
   inkscape:version="1.1 (c68e22c387, 2021-05-23)"
   xmlns:inkscape="http://www.inkscape.org/namespaces/inkscape"
   xmlns:sodipodi="http://sodipodi.sourceforge.net/DTD/sodipodi-0.dtd"
   xmlns="http://www.w3.org/2000/svg"
   xmlns:svg="http://www.w3.org/2000/svg">
  <sodipodi:namedview
     id="namedview7"
     pagecolor="#505050"
     bordercolor="#ffffff"
     borderopacity="1"
     inkscape:pageshadow="0"
     inkscape:pageopacity="0"
     inkscape:pagecheckerboard="1"
     inkscape:document-units="mm"
     showgrid="false"
     inkscape:zoom="1.28"
     inkscape:cx="188.67188"
     inkscape:cy="180.85938"
     inkscape:window-width="1920"
     inkscape:window-height="991"
     inkscape:window-x="-9"
     inkscape:window-y="-9"
     inkscape:window-maximized="1"
     inkscape:current-layer="layer1" />
  <defs
     id="defs2">
    <clipPath
       clipPathUnits="userSpaceOnUse"
       id="clipPath28205">
      <text
         xml:space="preserve"
         style="font-size:112.239px;line-height:1.05;font-family:FinkHeavy;-inkscape-font-specification:FinkHeavy;stroke-width:6.47531"
         x="26.051512"
         y="163.49147"
         id="text28209"><tspan
           sodipodi:role="line"
           id="tspan28207"
           style="font-style:normal;font-variant:normal;font-weight:normal;font-stretch:normal;font-family:'FOT-NewCinemaA Std';-inkscape-font-specification:'FOT-NewCinemaA Std';stroke-width:6.47531"
           x="26.051512"
           y="163.49147">ゑ</tspan></text>
    </clipPath>
  </defs>
  <g
     inkscape:label="Layer 1"
     inkscape:groupmode="layer"
     id="layer1"
     transform="translate(-31.553785,-72.803719)">
    <text
       xml:space="preserve"
       style="font-size:108.135px;line-height:1.05;font-family:FinkHeavy;-inkscape-font-specification:FinkHeavy;stroke:#000000;stroke-width:6.23857"
       x="28.088949"
       y="161.92522"
       id="text28185"><tspan
         sodipodi:role="line"
         id="tspan28183"
         style="font-style:normal;font-variant:normal;font-weight:normal;font-stretch:normal;font-family:'FOT-NewCinemaA Std';-inkscape-font-specification:'FOT-NewCinemaA Std';stroke:#000000;stroke-width:6.23857"
         x="28.088949"
         y="161.92522">ゑ</tspan></text>
    <g
       id="g1169"
       clip-path="url(#clipPath28205)"
       transform="matrix(0.96343872,0,0,0.96343872,2.9899144,4.4112056)">
      <path
         style="fill:#5bcefa;fill-opacity:1;stroke-width:0.397616;-inkscape-stroke:none;paint-order:stroke markers fill;stop-color:#000000"
         id="rect846"
         width="100"
         height="20"
         x="31.553785"
         y="72.803719"
         ry="0.0499999"
         sodipodi:type="rect"
         d="m 31.603785,72.803719 h 99.900005 c 0.0277,0 0.05,0.0223 0.05,0.05 v 19.900001 c 0,0.0277 -0.0223,0.05 -0.05,0.05 H 31.603785 c -0.0277,0 -0.05,-0.0223 -0.05,-0.05 V 72.853718 c 0,-0.0277 0.0223,-0.05 0.05,-0.05 z" />
      <path
         style="fill:#f5a9b8;fill-opacity:1;stroke-width:0.397616;-inkscape-stroke:none;paint-order:stroke markers fill;stop-color:#000000"
         id="rect1030"
         width="100"
         height="20"
         x="31.553785"
         y="92.804253"
         ry="0.0499999"
         sodipodi:type="rect"
         d="m 31.603785,92.804253 h 99.900005 c 0.0277,0 0.05,0.0223 0.05,0.05 v 19.899997 c 0,0.0277 -0.0223,0.05 -0.05,0.05 H 31.603785 c -0.0277,0 -0.05,-0.0223 -0.05,-0.05 V 92.854253 c 0,-0.0277 0.0223,-0.05 0.05,-0.05 z" />
      <path
         style="fill:#f5a9b8;fill-opacity:1;stroke-width:0.397616;-inkscape-stroke:none;paint-order:stroke markers fill;stop-color:#000000"
         id="rect1032"
         width="100"
         height="20"
         x="31.553785"
         y="132.80531"
         ry="0.0499999"
         sodipodi:type="rect"
         d="m 31.603785,132.80531 h 99.900005 c 0.0277,0 0.05,0.0223 0.05,0.05 v 19.9 c 0,0.0277 -0.0223,0.05 -0.05,0.05 H 31.603785 c -0.0277,0 -0.05,-0.0223 -0.05,-0.05 v -19.9 c 0,-0.0277 0.0223,-0.05 0.05,-0.05 z" />
      <path
         style="fill:#ffffff;stroke-width:0.397616;-inkscape-stroke:none;paint-order:stroke markers fill;stop-color:#000000"
         id="rect1034"
         width="100"
         height="20"
         x="31.553785"
         y="112.80478"
         ry="0.0499999"
         sodipodi:type="rect"
         d="m 31.603785,112.80478 h 99.900005 c 0.0277,0 0.05,0.0223 0.05,0.05 v 19.9 c 0,0.0277 -0.0223,0.05 -0.05,0.05 H 31.603785 c -0.0277,0 -0.05,-0.0223 -0.05,-0.05 v -19.9 c 0,-0.0277 0.0223,-0.05 0.05,-0.05 z" />
      <path
         style="fill:#5bcefa;fill-opacity:1;stroke-width:0.397616;-inkscape-stroke:none;paint-order:stroke markers fill;stop-color:#000000"
         id="rect1036"
         width="100"
         height="20"
         x="31.553785"
         y="152.80583"
         ry="0.0499999"
         sodipodi:type="rect"
         d="m 31.603785,152.80583 h 99.900005 c 0.0277,0 0.05,0.0223 0.05,0.05 v 19.9 c 0,0.0277 -0.0223,0.05 -0.05,0.05 H 31.603785 c -0.0277,0 -0.05,-0.0223 -0.05,-0.05 v -19.9 c 0,-0.0277 0.0223,-0.05 0.05,-0.05 z" />
    </g>
  </g>
</svg>
